<?xml version="1.0" encoding="UTF-8"?>
<svg id="Calque_1" data-name="Calque 1" xmlns="http://www.w3.org/2000/svg" version="1.1" viewBox="0 0 229 60.8">
  <defs>
    <style>
      .cls-1 {
        fill: #009cde;
        stroke-width: 0px;
      }
    </style>
  </defs>
  <g id="Livello_2" data-name="Livello 2">
    <g id="Livello_1-2" data-name="Livello 1-2">
      <path class="cls-1" d="M32.8,14.3c-3.9-3.9-7.6-7.6-8.7-11.7-1.1,4.2-4.8,7.9-8.7,11.7-5.8,5.8-12.4,12.4-12.4,22.3-.3,11.6,9,21.3,20.6,21.5,11.6.3,21.3-9,21.5-20.6,0-.3,0-.6,0-.9,0-9.9-6.6-16.5-12.4-22.3ZM13.9,38.5c-.6.8-1.2,1.7-1.6,2.6,0,.1-.2.3-.4.3h-.2c-.5,0-1-.9-1-.9h0c-.1-.2-.3-.5-.4-.7v-.2c-1.3-2.8-.2-6.8-.2-6.8h0c.5-1.9,1.4-3.8,2.5-5.4.7-1,1.5-2,2.3-3l1,1,4.7,4.8c.2.2.2.5,0,.7l-4.9,5.5h0l-1.8,2ZM24.3,52.3c-4,0-7.3-3.3-7.2-7.3,0-1.8.7-3.5,1.8-4.8,1.5-1.8,3.4-3.6,5.5-6,2.4,2.6,4,4.3,5.5,6.3.1.1.2.3.3.5.8,1.2,1.3,2.6,1.3,4.1,0,4-3.2,7.2-7.2,7.2,0,0,0,0,0,0ZM38,40.8h0c0,.3-.4.5-.7.6h-.1c-.3,0-.5-.3-.7-.5h0c-1.3-1.9-2.7-3.7-4.3-5.3l-1.9-2-6.4-6.6c-1.3-1.2-2.6-2.6-3.8-3.9,0,0,0-.1-.1-.1-.2-.3-.4-.6-.5-1v-.2c-.2-1.1.2-2.2,1-3,1.2-1.2,2.5-2.5,3.7-3.8,1.3,1.4,2.7,2.8,4.1,4.2h0c2.8,2.6,5.3,5.5,7.6,8.6,1.9,2.7,2.9,5.8,2.9,9.1,0,1.4-.2,2.8-.7,4.1Z"/>
      <path class="cls-1" d="M138.9,23.6h-6.9v12.9c0,3.8-1.6,6.8-5.4,6.8s-5.4-3-5.4-6.8v-12.9h-6.9v12.9c0,7.4,4.8,13.5,12.2,13.5s12.3-6,12.3-13.5v-12.9Z"/>
      <rect class="cls-1" x="201" y="15.7" width="6.9" height="33.5"/>
      <polygon class="cls-1" points="212.9 17 212.9 15.8 218.2 15.8 218.2 17 216.3 17 216.3 22.3 214.8 22.3 214.8 17 212.9 17"/>
      <polygon class="cls-1" points="221 15.8 222.5 20.3 222.5 20.3 224 15.8 226 15.8 226 22.3 224.7 22.3 224.7 17.7 224.6 17.7 223 22.3 221.9 22.3 220.3 17.7 220.3 17.7 220.3 22.3 219 22.3 219 15.8 221 15.8"/>
      <path class="cls-1" d="M108.8,23.3c-5.9-1.4-9.6,4.5-9.8,4.8,0,.1,0,.2-.3.2s-.2-.2-.2-.2l-.7-4.5h-6.1v25.6h6.9v-13.9c0-1.1,3-6.6,9-5.2,1.6.3,3,1,4.3,2v-7.8c-.9-.5-1.9-.9-2.9-1.1"/>
      <path class="cls-1" d="M154.9,29.8c3.8,0,6.9,3.1,6.9,6.9,0,3.8-3.1,6.9-6.9,6.9-3.8,0-6.9-3.1-6.9-6.9,0-3.8,3.1-6.9,6.9-6.9,0,0,0,0,0,0M148.2,57.7v-9.2h0v-3.5s0-.3.3-.3.3.2.3.3c1.6,3.8,5.8,5.8,9.8,4.7,7.2-2,11.4-9.5,9.4-16.7s-9.5-11.4-16.7-9.4c-5.8,1.6-9.9,7-9.9,13.1v21h6.9Z"/>
      <path class="cls-1" d="M191.5,36.7c0,3.8-3.1,6.9-6.9,6.9-3.8,0-6.9-3.1-6.9-6.9,0-3.8,3.1-6.9,6.9-6.9,0,0,0,0,0,0,3.8,0,6.9,3.1,6.9,6.9M191.3,49.3h6.9v-12.6c0-7.5-6.1-13.6-13.6-13.6s-13.6,6.1-13.6,13.6c0,6.1,4,11.4,9.9,13.1,4,1.1,8.2-.9,9.8-4.7,0-.1.1-.3.3-.3s.3.3.3.3"/>
      <path class="cls-1" d="M71.9,21.5h-2.8v21.9h2.8c5.8,0,9.6-.5,9.6-10.9s-3.3-10.9-9.7-10.9M70,49.2h-7.9V15.7h8.4c10.2,0,17.9,1.9,17.9,16.8s-8.2,16.7-18.4,16.7"/>
    </g>
  </g>
</svg>