<svg width="12" height="13" viewBox="0 0 12 13" fill="none" xmlns="http://www.w3.org/2000/svg">
<g id="fluent:ios-arrow-24-filled">
<path id="Vector" d="M5.63633 10.6565C5.59122 10.7042 5.55595 10.7604 5.53255 10.8217C5.50914 10.8831 5.49805 10.9485 5.4999 11.0141C5.50176 11.0798 5.51653 11.1444 5.54337 11.2044C5.57021 11.2643 5.60859 11.3184 5.65633 11.3635C5.70406 11.4086 5.76022 11.4439 5.82158 11.4673C5.88295 11.4907 5.94832 11.5018 6.01397 11.4999C6.07962 11.4981 6.14426 11.4833 6.20421 11.4565C6.26415 11.4296 6.31822 11.3912 6.36333 11.3435L10.6133 6.8435C10.7011 6.75066 10.75 6.62775 10.75 6.5C10.75 6.37224 10.7011 6.24933 10.6133 6.1565L6.36333 1.656C6.31852 1.60722 6.26446 1.56782 6.2043 1.54011C6.14413 1.5124 6.07906 1.49692 6.01287 1.49457C5.94667 1.49222 5.88066 1.50304 5.81869 1.52641C5.75671 1.54979 5.69999 1.58524 5.65183 1.63072C5.60367 1.67619 5.56503 1.73079 5.53814 1.79133C5.51126 1.85187 5.49667 1.91714 5.49523 1.98337C5.49379 2.04959 5.50552 2.11544 5.52974 2.17709C5.55396 2.23874 5.59019 2.29497 5.63633 2.3425L9.56233 6.5L5.63633 10.6565Z" fill="black"/>
</g>
</svg>
