<svg width="25" height="24" viewBox="0 0 25 24" fill="none" xmlns="http://www.w3.org/2000/svg">
<path d="M19.7385 19.5L14.7385 14.5M4.73853 10.3333C4.73853 11.0994 4.88941 11.8579 5.18256 12.5657C5.47571 13.2734 5.90539 13.9164 6.44707 14.4581C6.98874 14.9998 7.63181 15.4295 8.33954 15.7226C9.04727 16.0158 9.80581 16.1667 10.5719 16.1667C11.3379 16.1667 12.0964 16.0158 12.8042 15.7226C13.5119 15.4295 14.155 14.9998 14.6966 14.4581C15.2383 13.9164 15.668 13.2734 15.9612 12.5657C16.2543 11.8579 16.4052 11.0994 16.4052 10.3333C16.4052 9.56729 16.2543 8.80875 15.9612 8.10101C15.668 7.39328 15.2383 6.75022 14.6966 6.20854C14.155 5.66687 13.5119 5.23719 12.8042 4.94404C12.0964 4.65088 11.3379 4.5 10.5719 4.5C9.80581 4.5 9.04727 4.65088 8.33954 4.94404C7.63181 5.23719 6.98874 5.66687 6.44707 6.20854C5.90539 6.75022 5.47571 7.39328 5.18256 8.10101C4.88941 8.80875 4.73853 9.56729 4.73853 10.3333Z" stroke="black" stroke-width="2" stroke-linecap="round" stroke-linejoin="round"/>
</svg>
