<svg width="19" height="20" viewBox="0 0 19 20" fill="none" xmlns="http://www.w3.org/2000/svg">
<path d="M11.4592 2.93436C8.96543 0.499988 4.92793 0.499988 2.43418 2.93436C-0.000195384 5.42811 -0.000195384 9.46561 2.43418 11.9594C4.69043 14.2156 8.31231 14.4531 10.8061 12.5531L12.7654 15.225C13.0029 15.5812 13.7748 16.4125 13.7748 16.4125L15.9123 18.55C16.3873 19.025 17.1592 19.025 17.6342 18.55L18.0498 18.1344C18.5248 17.6594 18.5248 16.8875 18.0498 16.4125L15.9123 14.275C15.6154 13.9781 15.0811 13.5031 14.7248 13.2656L12.0529 11.3062C13.9529 8.81249 13.7748 5.24999 11.4592 2.93436ZM10.2123 10.7125C8.43106 12.4937 5.52168 12.4937 3.7998 10.7125C2.01855 8.93124 2.01855 6.02186 3.7998 4.29999C5.58105 2.51874 8.49043 2.51874 10.2123 4.29999C11.9342 6.02186 11.9342 8.93124 10.2123 10.7125Z" fill="white"/>
</svg>
